<svg width="128" height="128" viewBox="0 0 128 128" fill="none" xmlns="http://www.w3.org/2000/svg">
<path d="M0 20.48C0 9.1692 9.16921 0 20.48 0H107.52C118.831 0 128 9.16921 128 20.48V107.52C128 118.831 118.831 128 107.52 128H20.48C9.1692 128 0 118.831 0 107.52V20.48Z" fill="#4A97FF"/>
<rect x="49.9199" y="106.24" width="16.64" height="28.16" rx="2.56" transform="rotate(-90 49.9199 106.24)" fill="#C4C4C4"/>
<rect x="35.8401" y="108.8" width="6.4" height="57.6" rx="3.2" transform="rotate(-90 35.8401 108.8)" fill="#C4C4C4"/>
<rect x="6.40015" y="15.36" width="115.988" height="82.3138" rx="14.9662" fill="white"/>
<path d="M39.7287 46.1087H45.1237L42.4262 39.3325L39.7287 46.1087ZM44.0837 33.1575L53.4925 56.72H49.365L46.5537 49.6837H38.2987L35.4875 56.72H31.36L40.7687 33.1575H44.0837ZM74.2925 40.0475C74.2925 41.1741 74.1246 42.1708 73.7887 43.0375C73.4529 43.8933 73.0087 44.5866 72.4562 45.1175C71.9146 45.6375 71.2483 46.0654 70.4575 46.4012C69.6666 46.7371 68.8596 46.97 68.0362 47.1C67.2237 47.23 66.3354 47.295 65.3712 47.295H60.0087V56.72H56.1087V33.1575H65.095C66.8283 33.1575 68.3016 33.32 69.515 33.645C70.7283 33.97 71.6762 34.4466 72.3587 35.075C73.0412 35.6925 73.5341 36.4075 73.8375 37.22C74.1408 38.0216 74.2925 38.9641 74.2925 40.0475ZM70.3925 40.145C70.3925 38.8666 69.9104 37.9783 68.9462 37.48C67.9929 36.9816 66.5791 36.7325 64.705 36.7325H60.0087V43.72H64.77C65.8316 43.72 66.7362 43.6333 67.4837 43.46C68.2312 43.2866 68.8108 43.0375 69.2225 42.7125C69.6341 42.3875 69.9321 42.0191 70.1162 41.6075C70.3004 41.185 70.3925 40.6975 70.3925 40.145ZM96.49 40.0475C96.49 41.1741 96.3221 42.1708 95.9862 43.0375C95.6504 43.8933 95.2062 44.5866 94.6537 45.1175C94.1121 45.6375 93.4458 46.0654 92.655 46.4012C91.8641 46.7371 91.0571 46.97 90.2337 47.1C89.4212 47.23 88.5329 47.295 87.5687 47.295H82.2062V56.72H78.3062V33.1575H87.2925C89.0258 33.1575 90.4991 33.32 91.7125 33.645C92.9258 33.97 93.8737 34.4466 94.5562 35.075C95.2387 35.6925 95.7316 36.4075 96.035 37.22C96.3383 38.0216 96.49 38.9641 96.49 40.0475ZM92.59 40.145C92.59 38.8666 92.1079 37.9783 91.1437 37.48C90.1904 36.9816 88.7766 36.7325 86.9025 36.7325H82.2062V43.72H86.9675C88.0291 43.72 88.9337 43.6333 89.6812 43.46C90.4287 43.2866 91.0083 43.0375 91.42 42.7125C91.8316 42.3875 92.1296 42.0191 92.3137 41.6075C92.4979 41.185 92.59 40.6975 92.59 40.145ZM38.6629 77.4862V79.72H30.7791V77.4862H33.5384V62.9012H30.7791V60.6675H38.6629V62.9012H35.9036V77.4862H38.6629ZM49.3454 77.6308C50.8696 77.6308 52.1442 77.2322 53.1691 76.4351C54.2027 75.6379 54.7765 74.6481 54.8904 73.4655H57.3606C57.1241 74.3853 56.8 75.2131 56.3883 75.9489C55.9853 76.676 55.5298 77.2848 55.0218 77.7753C54.5225 78.2571 53.9574 78.6557 53.3267 78.971C52.7048 79.2864 52.0697 79.5141 51.4215 79.6543C50.7733 79.7944 50.0944 79.8645 49.3848 79.8645C48.0446 79.8645 46.8182 79.6455 45.7057 79.2075C44.602 78.7695 43.6516 78.1388 42.8544 77.3154C42.0573 76.4832 41.4354 75.4452 40.9886 74.2013C40.5506 72.9487 40.3316 71.5427 40.3316 69.9835C40.3316 68.0826 40.7171 66.4051 41.4879 64.951C42.2675 63.4969 43.345 62.3756 44.7203 61.5873C46.0956 60.7989 47.6636 60.4047 49.4243 60.4047C50.5192 60.4047 51.5135 60.5624 52.407 60.8777C53.3005 61.1843 54.045 61.6092 54.6407 62.1523C55.2451 62.6954 55.7401 63.2823 56.1255 63.913C56.5109 64.5437 56.8131 65.2313 57.0321 65.9759H54.5619C54.3692 65.354 54.0757 64.8152 53.6815 64.3597C53.2961 63.9042 52.8537 63.5582 52.3544 63.3217C51.8639 63.0852 51.3733 62.9144 50.8828 62.8092C50.3922 62.6954 49.8885 62.6384 49.3717 62.6384C48.0139 62.6384 46.8226 62.9669 45.7977 63.6239C44.7728 64.2721 43.9976 65.1481 43.472 66.2518C42.9552 67.3556 42.6968 68.5951 42.6968 69.9704C42.6968 70.5923 42.7581 71.2274 42.8807 71.8756C43.0121 72.5238 43.2399 73.1983 43.564 73.8991C43.8881 74.5999 44.291 75.2218 44.7728 75.7649C45.2634 76.308 45.9028 76.7548 46.6912 77.1052C47.4796 77.4556 48.3643 77.6308 49.3454 77.6308ZM73.7063 78.6819C72.3311 79.4703 70.7455 79.8645 68.9498 79.8645C67.154 79.8645 65.5641 79.4703 64.1801 78.6819C62.8048 77.8848 61.7317 76.7504 60.9609 75.2788C60.19 73.8071 59.8046 72.1034 59.8046 70.1674C59.8046 68.2491 60.1725 66.554 60.9083 65.0824C61.6441 63.6108 62.7041 62.4632 64.0881 61.6398C65.4809 60.8164 67.1015 60.4047 68.9498 60.4047C70.7981 60.4047 72.4143 60.8164 73.7983 61.6398C75.1911 62.4632 76.2554 63.6108 76.9912 65.0824C77.7271 66.554 78.095 68.2491 78.095 70.1674C78.095 72.1034 77.7095 73.8071 76.9387 75.2788C76.1678 76.7504 75.0904 77.8848 73.7063 78.6819ZM73.9034 64.7276C72.6946 63.3348 71.0434 62.6384 68.9498 62.6384C66.8562 62.6384 65.2006 63.3348 63.983 64.7276C62.7741 66.1204 62.1697 67.9337 62.1697 70.1674C62.1697 72.4362 62.7741 74.2495 63.983 75.6073C65.1918 76.9563 66.8474 77.6308 68.9498 77.6308C71.0521 77.6308 72.7077 76.9563 73.9166 75.6073C75.1254 74.2495 75.7298 72.4362 75.7298 70.1674C75.7298 67.9337 75.121 66.1204 73.9034 64.7276ZM81.4325 79.72V60.6675H83.7976L94.2436 75.581V60.6675H96.6087V79.72H94.2436L83.7976 64.7933V79.72H81.4325Z" fill="#4E4E4E"/>
</svg>
