<svg width="16" height="16" viewBox="0 0 16 16" fill="none" xmlns="http://www.w3.org/2000/svg">
<path d="M0 2.56C0 1.14615 1.14615 0 2.56 0H13.44C14.8538 0 16 1.14615 16 2.56V13.44C16 14.8538 14.8538 16 13.44 16H2.56C1.14615 16 0 14.8538 0 13.44V2.56Z" fill="#4A97FF"/>
<rect x="6.23999" y="13.28" width="2.08" height="3.52" rx="0.32" transform="rotate(-90 6.23999 13.28)" fill="#C4C4C4"/>
<rect x="4.47998" y="13.6" width="0.8" height="7.2" rx="0.4" transform="rotate(-90 4.47998 13.6)" fill="#C4C4C4"/>
<rect x="0.800049" y="1.92004" width="14.4985" height="10.2892" rx="1.87077" fill="white"/>
<path d="M4.96615 5.51356H5.64053L5.30334 4.66653L4.96615 5.51356ZM5.51053 3.89465L6.68662 6.83997H6.17068L5.81928 5.96043H4.7874L4.436 6.83997H3.92006L5.09615 3.89465H5.51053ZM9.28662 4.7559C9.28662 4.89674 9.26563 5.02132 9.22365 5.12965C9.18167 5.23663 9.12615 5.3233 9.05709 5.38965C8.98938 5.45465 8.9061 5.50814 8.80725 5.55012C8.70839 5.5921 8.60751 5.62122 8.50459 5.63747C8.40303 5.65372 8.29199 5.66184 8.17146 5.66184H7.50115V6.83997H7.01365V3.89465H8.13693C8.3536 3.89465 8.53777 3.91497 8.68943 3.95559C8.8411 3.99622 8.95959 4.0558 9.0449 4.13434C9.13021 4.21153 9.19183 4.3009 9.22975 4.40247C9.26766 4.50267 9.28662 4.62049 9.28662 4.7559ZM8.79912 4.76809C8.79912 4.6083 8.73886 4.49726 8.61834 4.43497C8.49917 4.37267 8.32245 4.34153 8.08818 4.34153H7.50115V5.21497H8.09631C8.22902 5.21497 8.34209 5.20413 8.43553 5.18247C8.52896 5.1608 8.60141 5.12965 8.65287 5.08903C8.70433 5.0484 8.74157 5.00236 8.76459 4.9509C8.78761 4.89809 8.79912 4.83715 8.79912 4.76809ZM12.0613 4.7559C12.0613 4.89674 12.0403 5.02132 11.9983 5.12965C11.9564 5.23663 11.9008 5.3233 11.8318 5.38965C11.7641 5.45465 11.6808 5.50814 11.5819 5.55012C11.4831 5.5921 11.3822 5.62122 11.2793 5.63747C11.1777 5.65372 11.0667 5.66184 10.9462 5.66184H10.2758V6.83997H9.78834V3.89465H10.9116C11.1283 3.89465 11.3125 3.91497 11.4641 3.95559C11.6158 3.99622 11.7343 4.0558 11.8196 4.13434C11.9049 4.21153 11.9665 4.3009 12.0044 4.40247C12.0423 4.50267 12.0613 4.62049 12.0613 4.7559ZM11.5738 4.76809C11.5738 4.6083 11.5135 4.49726 11.393 4.43497C11.2739 4.37267 11.0971 4.34153 10.8629 4.34153H10.2758V5.21497H10.871C11.0037 5.21497 11.1168 5.20413 11.2102 5.18247C11.3037 5.1608 11.3761 5.12965 11.4276 5.08903C11.479 5.0484 11.5163 5.00236 11.5393 4.9509C11.5623 4.89809 11.5738 4.83715 11.5738 4.76809ZM4.83292 9.56075V9.83997H3.84745V9.56075H4.19237V7.73762H3.84745V7.4584H4.83292V7.73762H4.48801V9.56075H4.83292ZM6.16824 9.57882C6.35876 9.57882 6.51808 9.52899 6.64619 9.42935C6.7754 9.32971 6.84712 9.20598 6.86136 9.05816H7.17014C7.14057 9.17313 7.10006 9.2766 7.0486 9.36858C6.99823 9.45946 6.94129 9.53556 6.87778 9.59688C6.81537 9.65711 6.74474 9.70693 6.6659 9.74635C6.58816 9.78576 6.50878 9.81423 6.42775 9.83175C6.34672 9.84927 6.26186 9.85803 6.17317 9.85803C6.00564 9.85803 5.85234 9.83066 5.71328 9.77591C5.57531 9.72116 5.45651 9.64232 5.35687 9.5394C5.25722 9.43537 5.17948 9.30562 5.12364 9.15013C5.06889 8.99355 5.04151 8.81781 5.04151 8.62291C5.04151 8.3853 5.08969 8.17561 5.18605 7.99385C5.2835 7.81208 5.41818 7.67192 5.5901 7.57338C5.76201 7.47483 5.95801 7.42556 6.17809 7.42556C6.31497 7.42556 6.43924 7.44526 6.55093 7.48468C6.66262 7.52301 6.75569 7.57611 6.83015 7.644C6.9057 7.71189 6.96757 7.78525 7.01575 7.86409C7.06393 7.94293 7.1017 8.02888 7.12908 8.12196H6.82029C6.79621 8.04421 6.75952 7.97687 6.71025 7.91993C6.66207 7.863 6.60678 7.81974 6.54436 7.79018C6.48304 7.76062 6.42173 7.73926 6.36041 7.72612C6.29909 7.71189 6.23613 7.70477 6.17152 7.70477C6.0018 7.70477 5.85289 7.74583 5.72478 7.82796C5.59666 7.90898 5.49976 8.01848 5.43406 8.15645C5.36946 8.29441 5.33716 8.44935 5.33716 8.62126C5.33716 8.69901 5.34482 8.77839 5.36015 8.85942C5.37658 8.94045 5.40505 9.02476 5.44556 9.11236C5.48607 9.19996 5.53644 9.2777 5.59666 9.34559C5.65798 9.41347 5.73792 9.46932 5.83646 9.51312C5.93501 9.55692 6.0456 9.57882 6.16824 9.57882ZM9.21335 9.71021C9.04144 9.80876 8.84325 9.85803 8.61878 9.85803C8.39431 9.85803 8.19558 9.80876 8.02257 9.71021C7.85066 9.61057 7.71653 9.46877 7.62017 9.28482C7.52381 9.10086 7.47563 8.88789 7.47563 8.6459C7.47563 8.4061 7.52162 8.19422 7.6136 8.01027C7.70558 7.82631 7.83807 7.68287 8.01108 7.57995C8.18518 7.47702 8.38775 7.42556 8.61878 7.42556C8.84982 7.42556 9.05184 7.47702 9.22485 7.57995C9.39895 7.68287 9.53199 7.82631 9.62397 8.01027C9.71594 8.19422 9.76193 8.4061 9.76193 8.6459C9.76193 8.88789 9.71375 9.10086 9.6174 9.28482C9.52104 9.46877 9.38636 9.61057 9.21335 9.71021ZM9.23799 7.96592C9.08688 7.79182 8.88048 7.70477 8.61878 7.70477C8.35709 7.70477 8.15014 7.79182 7.99794 7.96592C7.84683 8.14002 7.77128 8.36668 7.77128 8.6459C7.77128 8.9295 7.84683 9.15616 7.99794 9.32588C8.14904 9.4945 8.35599 9.57882 8.61878 9.57882C8.88158 9.57882 9.08853 9.4945 9.23963 9.32588C9.39074 9.15616 9.46629 8.9295 9.46629 8.6459C9.46629 8.36668 9.39019 8.14002 9.23799 7.96592ZM10.1791 9.83997V7.4584H10.4748L11.7805 9.32259V7.4584H12.0762V9.83997H11.7805L10.4748 7.97414V9.83997H10.1791Z" fill="#4E4E4E"/>
</svg>
