<svg width="32" height="32" viewBox="0 0 32 32" fill="none" xmlns="http://www.w3.org/2000/svg">
<path d="M0 5.12C0 2.2923 2.2923 0 5.12 0H26.88C29.7077 0 32 2.2923 32 5.12V26.88C32 29.7077 29.7077 32 26.88 32H5.12C2.2923 32 0 29.7077 0 26.88V5.12Z" fill="#4A97FF"/>
<rect x="12.48" y="26.5601" width="4.16" height="7.04" rx="0.64" transform="rotate(-90 12.48 26.5601)" fill="#C4C4C4"/>
<rect x="8.95996" y="27.2" width="1.6" height="14.4" rx="0.8" transform="rotate(-90 8.95996 27.2)" fill="#C4C4C4"/>
<rect x="1.6001" y="3.83997" width="28.9969" height="20.5785" rx="3.74154" fill="white"/>
<path d="M9.9323 11.0271H11.2811L10.6067 9.33306L9.9323 11.0271ZM11.0211 7.78931L13.3732 13.6799H12.3414L11.6386 11.9209H9.5748L8.87199 13.6799H7.84012L10.1923 7.78931H11.0211ZM18.5732 9.51181C18.5732 9.79347 18.5313 10.0426 18.4473 10.2593C18.3633 10.4733 18.2523 10.6466 18.1142 10.7793C17.9788 10.9093 17.8122 11.0163 17.6145 11.1002C17.4168 11.1842 17.215 11.2424 17.0092 11.2749C16.8061 11.3074 16.584 11.3237 16.3429 11.3237H15.0023V13.6799H14.0273V7.78931H16.2739C16.7072 7.78931 17.0755 7.82993 17.3789 7.91118C17.6822 7.99243 17.9192 8.1116 18.0898 8.26868C18.2604 8.42306 18.3837 8.60181 18.4595 8.80493C18.5353 9.00535 18.5732 9.24097 18.5732 9.51181ZM17.5982 9.53618C17.5982 9.2166 17.4777 8.99452 17.2367 8.86993C16.9983 8.74535 16.6449 8.68306 16.1764 8.68306H15.0023V10.4299H16.1926C16.458 10.4299 16.6842 10.4083 16.8711 10.3649C17.0579 10.3216 17.2028 10.2593 17.3057 10.1781C17.4087 10.0968 17.4831 10.0047 17.5292 9.90181C17.5752 9.79618 17.5982 9.67431 17.5982 9.53618ZM24.1226 9.51181C24.1226 9.79347 24.0806 10.0426 23.9967 10.2593C23.9127 10.4733 23.8017 10.6466 23.6636 10.7793C23.5281 10.9093 23.3616 11.0163 23.1639 11.1002C22.9662 11.1842 22.7644 11.2424 22.5586 11.2749C22.3554 11.3074 22.1333 11.3237 21.8923 11.3237H20.5517V13.6799H19.5767V7.78931H21.8232C22.2566 7.78931 22.6249 7.82993 22.9282 7.91118C23.2316 7.99243 23.4686 8.1116 23.6392 8.26868C23.8098 8.42306 23.933 8.60181 24.0089 8.80493C24.0847 9.00535 24.1226 9.24097 24.1226 9.51181ZM23.1476 9.53618C23.1476 9.2166 23.0271 8.99452 22.7861 8.86993C22.5477 8.74535 22.1943 8.68306 21.7257 8.68306H20.5517V10.4299H21.742C22.0074 10.4299 22.2336 10.4083 22.4204 10.3649C22.6073 10.3216 22.7522 10.2593 22.8551 10.1781C22.958 10.0968 23.0325 10.0047 23.0786 9.90181C23.1246 9.79618 23.1476 9.67431 23.1476 9.53618ZM9.66585 19.1215V19.6799H7.6949V19.1215H8.38473V15.4752H7.6949V14.9168H9.66585V15.4752H8.97601V19.1215H9.66585ZM12.3365 19.1576C12.7175 19.1576 13.0362 19.058 13.2924 18.8587C13.5508 18.6594 13.6942 18.412 13.7227 18.1163H14.3403C14.2811 18.3463 14.2001 18.5532 14.0972 18.7372C13.9965 18.9189 13.8826 19.0711 13.7556 19.1938C13.6307 19.3142 13.4895 19.4139 13.3318 19.4927C13.1763 19.5715 13.0176 19.6285 12.8555 19.6635C12.6934 19.6985 12.5237 19.7161 12.3463 19.7161C12.0113 19.7161 11.7047 19.6613 11.4266 19.5518C11.1506 19.4423 10.913 19.2846 10.7137 19.0788C10.5144 18.8707 10.359 18.6112 10.2473 18.3003C10.1378 17.9871 10.083 17.6356 10.083 17.2458C10.083 16.7706 10.1794 16.3512 10.3721 15.9877C10.567 15.6242 10.8364 15.3438 11.1802 15.1468C11.524 14.9497 11.916 14.8511 12.3562 14.8511C12.6299 14.8511 12.8785 14.8905 13.1019 14.9694C13.3252 15.046 13.5114 15.1522 13.6603 15.288C13.8114 15.4238 13.9351 15.5705 14.0315 15.7282C14.1279 15.8859 14.2034 16.0578 14.2582 16.2439H13.6406C13.5924 16.0884 13.519 15.9537 13.4205 15.8399C13.3241 15.726 13.2136 15.6395 13.0887 15.5804C12.9661 15.5212 12.8435 15.4785 12.7208 15.4522C12.5982 15.4238 12.4723 15.4095 12.343 15.4095C12.0036 15.4095 11.7058 15.4917 11.4496 15.6559C11.1933 15.818 10.9995 16.037 10.8681 16.3129C10.7389 16.5888 10.6743 16.8987 10.6743 17.2425C10.6743 17.398 10.6896 17.5568 10.7203 17.7188C10.7532 17.8809 10.8101 18.0495 10.8911 18.2247C10.9721 18.3999 11.0729 18.5554 11.1933 18.6912C11.316 18.8269 11.4758 18.9386 11.6729 19.0262C11.87 19.1138 12.0912 19.1576 12.3365 19.1576ZM18.4267 19.4204C18.0829 19.6175 17.6865 19.7161 17.2376 19.7161C16.7886 19.7161 16.3912 19.6175 16.0451 19.4204C15.7013 19.2211 15.4331 18.9375 15.2403 18.5696C15.0476 18.2017 14.9513 17.7758 14.9513 17.2918C14.9513 16.8122 15.0432 16.3884 15.2272 16.0205C15.4112 15.6526 15.6761 15.3657 16.0222 15.1599C16.3704 14.954 16.7755 14.8511 17.2376 14.8511C17.6996 14.8511 18.1037 14.954 18.4497 15.1599C18.7979 15.3657 19.064 15.6526 19.2479 16.0205C19.4319 16.3884 19.5239 16.8122 19.5239 17.2918C19.5239 17.7758 19.4275 18.2017 19.2348 18.5696C19.0421 18.9375 18.7727 19.2211 18.4267 19.4204ZM18.476 15.9318C18.1738 15.5836 17.761 15.4095 17.2376 15.4095C16.7142 15.4095 16.3003 15.5836 15.9959 15.9318C15.6937 16.28 15.5426 16.7334 15.5426 17.2918C15.5426 17.859 15.6937 18.3123 15.9959 18.6518C16.2981 18.989 16.712 19.1576 17.2376 19.1576C17.7632 19.1576 18.1771 18.989 18.4793 18.6518C18.7815 18.3123 18.9326 17.859 18.9326 17.2918C18.9326 16.7334 18.7804 16.28 18.476 15.9318ZM20.3582 19.6799V14.9168H20.9495L23.561 18.6452V14.9168H24.1523V19.6799H23.561L20.9495 15.9483V19.6799H20.3582Z" fill="#4E4E4E"/>
</svg>
