<svg width="100" height="100" viewBox="0 0 100 100" fill="none" xmlns="http://www.w3.org/2000/svg">
<path d="M0 16C0 7.16345 7.16344 0 16 0H84C92.8366 0 100 7.16344 100 16V84C100 92.8366 92.8366 100 84 100H16C7.16345 100 0 92.8366 0 84V16Z" fill="#4A97FF"/>
<rect x="39" y="83" width="13" height="22" rx="2" transform="rotate(-90 39 83)" fill="#C4C4C4"/>
<rect x="28" y="85" width="5" height="45" rx="2.5" transform="rotate(-90 28 85)" fill="#C4C4C4"/>
<rect x="5" y="12" width="90.6154" height="64.3077" rx="11.6923" fill="white"/>
<path d="M31.0381 35.71H35.2529L33.1455 30.416L31.0381 35.71ZM34.4404 25.5918L41.791 44H38.5664L36.3701 38.5029H29.9209L27.7246 44H24.5L31.8506 25.5918H34.4404ZM58.041 30.9746C58.041 31.8548 57.9098 32.6335 57.6475 33.3105C57.3851 33.9792 57.0381 34.5208 56.6064 34.9355C56.1833 35.3418 55.6628 35.6761 55.0449 35.9385C54.4271 36.2008 53.7965 36.3828 53.1533 36.4844C52.5186 36.5859 51.8245 36.6367 51.0713 36.6367H46.8818V44H43.835V25.5918H50.8555C52.2096 25.5918 53.3607 25.7188 54.3086 25.9727C55.2565 26.2266 55.9971 26.599 56.5303 27.0898C57.0635 27.5723 57.4486 28.1309 57.6855 28.7656C57.9225 29.3919 58.041 30.1283 58.041 30.9746ZM54.9941 31.0508C54.9941 30.0521 54.6175 29.3581 53.8643 28.9688C53.1195 28.5794 52.015 28.3848 50.5508 28.3848H46.8818V33.8438H50.6016C51.431 33.8438 52.1377 33.776 52.7217 33.6406C53.3057 33.5052 53.7585 33.3105 54.0801 33.0566C54.4017 32.8027 54.6344 32.515 54.7783 32.1934C54.9222 31.8633 54.9941 31.4824 54.9941 31.0508ZM75.3828 30.9746C75.3828 31.8548 75.2516 32.6335 74.9893 33.3105C74.7269 33.9792 74.3799 34.5208 73.9482 34.9355C73.5251 35.3418 73.0046 35.6761 72.3867 35.9385C71.7689 36.2008 71.1383 36.3828 70.4951 36.4844C69.8604 36.5859 69.1663 36.6367 68.4131 36.6367H64.2236V44H61.1768V25.5918H68.1973C69.5514 25.5918 70.7025 25.7188 71.6504 25.9727C72.5983 26.2266 73.3389 26.599 73.8721 27.0898C74.4053 27.5723 74.7904 28.1309 75.0273 28.7656C75.2643 29.3919 75.3828 30.1283 75.3828 30.9746ZM72.3359 31.0508C72.3359 30.0521 71.9593 29.3581 71.2061 28.9688C70.4613 28.5794 69.3568 28.3848 67.8926 28.3848H64.2236V33.8438H67.9434C68.7728 33.8438 69.4795 33.776 70.0635 33.6406C70.6475 33.5052 71.1003 33.3105 71.4219 33.0566C71.7435 32.8027 71.9762 32.515 72.1201 32.1934C72.264 31.8633 72.3359 31.4824 72.3359 31.0508ZM30.2054 60.2549V62H24.0462V60.2549H26.2019V48.8604H24.0462V47.1152H30.2054V48.8604H28.0497V60.2549H30.2054ZM38.5511 60.3678C39.7419 60.3678 40.7377 60.0564 41.5383 59.4337C42.3459 58.8109 42.7941 58.0376 42.8831 57.1137H44.813C44.6282 57.8323 44.375 58.479 44.0534 59.0538C43.7386 59.6219 43.3827 60.0975 42.9858 60.4807C42.5957 60.8571 42.1543 61.1685 41.6615 61.4149C41.1756 61.6612 40.6795 61.8392 40.1731 61.9487C39.6666 62.0582 39.1363 62.1129 38.5819 62.1129C37.5349 62.1129 36.5768 61.9418 35.7076 61.5997C34.8453 61.2575 34.1028 60.7647 33.48 60.1214C32.8573 59.4713 32.3714 58.6603 32.0224 57.6886C31.6802 56.7099 31.5091 55.6115 31.5091 54.3934C31.5091 52.9083 31.8102 51.5978 32.4125 50.4617C33.0215 49.3257 33.8633 48.4497 34.9377 47.8338C36.0122 47.2179 37.2372 46.9099 38.6127 46.9099C39.4682 46.9099 40.2449 47.0331 40.943 47.2795C41.641 47.519 42.2227 47.8509 42.6881 48.2752C43.1603 48.6995 43.5469 49.158 43.8481 49.6508C44.1492 50.1435 44.3853 50.6807 44.5564 51.2624H42.6265C42.4759 50.7766 42.2467 50.3557 41.9387 49.9998C41.6376 49.6439 41.292 49.3736 40.9019 49.1888C40.5187 49.0041 40.1354 48.8706 39.7522 48.7885C39.3689 48.6995 38.9754 48.655 38.5717 48.655C37.5109 48.655 36.5802 48.9117 35.7795 49.4249C34.9788 49.9314 34.3731 50.6157 33.9625 51.478C33.5588 52.3403 33.3569 53.3087 33.3569 54.3831C33.3569 54.869 33.4048 55.3652 33.5006 55.8716C33.6032 56.378 33.7812 56.905 34.0344 57.4524C34.2876 57.9999 34.6024 58.4858 34.9788 58.9101C35.362 59.3344 35.8616 59.6835 36.4775 59.9572C37.0935 60.2309 37.7847 60.3678 38.5511 60.3678ZM57.5831 61.189C56.5087 61.805 55.27 62.1129 53.867 62.1129C52.4641 62.1129 51.222 61.805 50.1407 61.189C49.0663 60.5663 48.2279 59.68 47.6257 58.5303C47.0235 57.3806 46.7224 56.0495 46.7224 54.5371C46.7224 53.0383 47.0098 51.7141 47.5846 50.5644C48.1595 49.4147 48.9876 48.5182 50.0689 47.8749C51.157 47.2316 52.423 46.9099 53.867 46.9099C55.311 46.9099 56.5737 47.2316 57.6549 47.8749C58.7431 48.5182 59.5746 49.4147 60.1494 50.5644C60.7243 51.7141 61.0117 53.0383 61.0117 54.5371C61.0117 56.0495 60.7106 57.3806 60.1084 58.5303C59.5061 59.68 58.6644 60.5663 57.5831 61.189ZM57.7371 50.2872C56.7927 49.1991 55.5026 48.655 53.867 48.655C52.2314 48.655 50.938 49.1991 49.9867 50.2872C49.0423 51.3754 48.5701 52.792 48.5701 54.5371C48.5701 56.3096 49.0423 57.7262 49.9867 58.7869C50.9311 59.8409 52.2246 60.3678 53.867 60.3678C55.5095 60.3678 56.8029 59.8409 57.7473 58.7869C58.6917 57.7262 59.164 56.3096 59.164 54.5371C59.164 52.792 58.6883 51.3754 57.7371 50.2872ZM63.6191 62V47.1152H65.4669L73.6278 58.7664V47.1152H75.4756V62H73.6278L65.4669 50.3386V62H63.6191Z" fill="#4E4E4E"/>
</svg>
