<svg width="256" height="256" viewBox="0 0 256 256" fill="none" xmlns="http://www.w3.org/2000/svg">
<path d="M0 40.96C0 18.3384 18.3384 0 40.96 0H215.04C237.662 0 256 18.3384 256 40.96V215.04C256 237.662 237.662 256 215.04 256H40.96C18.3384 256 0 237.662 0 215.04V40.96Z" fill="#4A97FF"/>
<rect x="99.8398" y="212.48" width="33.28" height="56.32" rx="5.12" transform="rotate(-90 99.8398 212.48)" fill="#C4C4C4"/>
<rect x="71.6802" y="217.6" width="12.8" height="115.2" rx="6.4" transform="rotate(-90 71.6802 217.6)" fill="#C4C4C4"/>
<rect x="12.8003" y="30.72" width="231.975" height="164.628" rx="29.9323" fill="white"/>
<path d="M79.4575 92.2174H90.2475L84.8525 78.6649L79.4575 92.2174ZM88.1675 66.3149L106.985 113.44H98.73L93.1075 99.3674H76.5975L70.975 113.44H62.72L81.5375 66.3149H88.1675ZM148.585 80.0949C148.585 82.3483 148.249 84.3416 147.577 86.0749C146.906 87.7866 146.017 89.1733 144.912 90.2349C143.829 91.2749 142.497 92.1308 140.915 92.8024C139.333 93.4741 137.719 93.9399 136.072 94.1999C134.447 94.4599 132.671 94.5899 130.742 94.5899H120.017V113.44H112.217V66.3149H130.19C133.657 66.3149 136.603 66.6399 139.03 67.2899C141.457 67.9399 143.352 68.8933 144.717 70.1499C146.082 71.3849 147.068 72.8149 147.675 74.4399C148.282 76.0433 148.585 77.9283 148.585 80.0949ZM140.785 80.2899C140.785 77.7333 139.821 75.9566 137.892 74.9599C135.986 73.9633 133.158 73.4649 129.41 73.4649H120.017V87.4399H129.54C131.663 87.4399 133.472 87.2666 134.967 86.9199C136.462 86.5733 137.622 86.0749 138.445 85.4249C139.268 84.7749 139.864 84.0383 140.232 83.2149C140.601 82.3699 140.785 81.3949 140.785 80.2899ZM192.98 80.0949C192.98 82.3483 192.644 84.3416 191.972 86.0749C191.301 87.7866 190.412 89.1733 189.307 90.2349C188.224 91.2749 186.892 92.1308 185.31 92.8024C183.728 93.4741 182.114 93.9399 180.467 94.1999C178.842 94.4599 177.066 94.5899 175.137 94.5899H164.412V113.44H156.612V66.3149H174.585C178.052 66.3149 180.998 66.6399 183.425 67.2899C185.852 67.9399 187.747 68.8933 189.112 70.1499C190.477 71.3849 191.463 72.8149 192.07 74.4399C192.677 76.0433 192.98 77.9283 192.98 80.0949ZM185.18 80.2899C185.18 77.7333 184.216 75.9566 182.287 74.9599C180.381 73.9633 177.553 73.4649 173.805 73.4649H164.412V87.4399H173.935C176.058 87.4399 177.867 87.2666 179.362 86.9199C180.857 86.5733 182.017 86.0749 182.84 85.4249C183.663 84.7749 184.259 84.0383 184.627 83.2149C184.996 82.3699 185.18 81.3949 185.18 80.2899ZM77.3258 153.972V158.44H61.5582V153.972H67.0769V124.802H61.5582V120.335H77.3258V124.802H71.8071V153.972H77.3258ZM98.6909 154.262C101.739 154.262 104.288 153.464 106.338 151.87C108.405 150.276 109.553 148.296 109.781 145.931H114.721C114.248 147.771 113.6 149.426 112.777 150.898C111.971 152.352 111.06 153.57 110.044 154.551C109.045 155.514 107.915 156.311 106.653 156.942C105.41 157.573 104.139 158.028 102.843 158.309C101.547 158.589 100.189 158.729 98.7697 158.729C96.0892 158.729 93.6365 158.291 91.4115 157.415C89.204 156.539 87.3032 155.278 85.7089 153.631C84.1146 151.966 82.8707 149.89 81.9772 147.403C81.1012 144.897 80.6633 142.085 80.6633 138.967C80.6633 135.165 81.4341 131.81 82.9758 128.902C84.5351 125.994 86.69 123.751 89.4405 122.175C92.1911 120.598 95.3271 119.809 98.8485 119.809C101.038 119.809 103.027 120.125 104.814 120.755C106.601 121.369 108.09 122.218 109.281 123.305C110.49 124.391 111.48 125.565 112.251 126.826C113.022 128.087 113.626 129.463 114.064 130.952H109.124C108.738 129.708 108.151 128.63 107.363 127.719C106.592 126.808 105.707 126.116 104.709 125.643C103.728 125.17 102.747 124.829 101.766 124.618C100.784 124.391 99.7771 124.277 98.7434 124.277C96.0279 124.277 93.6452 124.934 91.5954 126.248C89.5457 127.544 87.9952 129.296 86.944 131.504C85.9104 133.711 85.3935 136.19 85.3935 138.941C85.3935 140.185 85.5162 141.455 85.7614 142.751C86.0242 144.048 86.4797 145.397 87.128 146.798C87.7762 148.2 88.5821 149.444 89.5457 150.53C90.5268 151.616 91.8057 152.51 93.3824 153.21C94.9592 153.911 96.7287 154.262 98.6909 154.262ZM147.413 156.364C144.662 157.941 141.491 158.729 137.9 158.729C134.308 158.729 131.128 157.941 128.36 156.364C125.61 154.77 123.463 152.501 121.922 149.558C120.38 146.614 119.609 143.207 119.609 139.335C119.609 135.498 120.345 132.108 121.817 129.165C123.288 126.222 125.408 123.926 128.176 122.28C130.962 120.633 134.203 119.809 137.9 119.809C141.596 119.809 144.829 120.633 147.597 122.28C150.382 123.926 152.511 126.222 153.982 129.165C155.454 132.108 156.19 135.498 156.19 139.335C156.19 143.207 155.419 146.614 153.877 149.558C152.336 152.501 150.181 154.77 147.413 156.364ZM147.807 128.455C145.389 125.67 142.087 124.277 137.9 124.277C133.712 124.277 130.401 125.67 127.966 128.455C125.548 131.241 124.339 134.867 124.339 139.335C124.339 143.872 125.548 147.499 127.966 150.215C130.384 152.913 133.695 154.262 137.9 154.262C142.104 154.262 145.415 152.913 147.833 150.215C150.251 147.499 151.46 143.872 151.46 139.335C151.46 134.867 150.242 131.241 147.807 128.455ZM162.865 158.44V120.335H167.595L188.487 150.162V120.335H193.217V158.44H188.487L167.595 128.587V158.44H162.865Z" fill="#4E4E4E"/>
</svg>
