<svg width="64" height="64" viewBox="0 0 64 64" fill="none" xmlns="http://www.w3.org/2000/svg">
<path d="M0 10.24C0 4.5846 4.5846 0 10.24 0H53.76C59.4154 0 64 4.5846 64 10.24V53.76C64 59.4154 59.4154 64 53.76 64H10.24C4.5846 64 0 59.4154 0 53.76V10.24Z" fill="#4A97FF"/>
<rect x="24.96" y="53.12" width="8.32" height="14.08" rx="1.28" transform="rotate(-90 24.96 53.12)" fill="#C4C4C4"/>
<rect x="17.9199" y="54.4" width="3.2" height="28.8" rx="1.6" transform="rotate(-90 17.9199 54.4)" fill="#C4C4C4"/>
<rect x="3.2002" y="7.67993" width="57.9938" height="41.1569" rx="7.48308" fill="white"/>
<path d="M19.8644 23.0544H22.5619L21.2131 19.6662L19.8644 23.0544ZM22.0419 16.5787L26.7462 28.36H24.6825L23.2769 24.8419H19.1494L17.7437 28.36H15.68L20.3844 16.5787H22.0419ZM37.1462 20.0237C37.1462 20.5871 37.0623 21.0854 36.8944 21.5187C36.7264 21.9467 36.5044 22.2933 36.2281 22.5587C35.9573 22.8187 35.6242 23.0327 35.2287 23.2006C34.8333 23.3685 34.4298 23.485 34.0181 23.55C33.6119 23.615 33.1677 23.6475 32.6856 23.6475H30.0044V28.36H28.0544V16.5787H32.5475C33.4142 16.5787 34.1508 16.66 34.7575 16.8225C35.3642 16.985 35.8381 17.2233 36.1794 17.5375C36.5206 17.8462 36.7671 18.2037 36.9187 18.61C37.0704 19.0108 37.1462 19.4821 37.1462 20.0237ZM35.1962 20.0725C35.1962 19.4333 34.9552 18.9892 34.4731 18.74C33.9964 18.4908 33.2896 18.3662 32.3525 18.3662H30.0044V21.86H32.385C32.9158 21.86 33.3681 21.8167 33.7419 21.73C34.1156 21.6433 34.4054 21.5187 34.6112 21.3562C34.8171 21.1937 34.966 21.0096 35.0581 20.8037C35.1502 20.5925 35.1962 20.3487 35.1962 20.0725ZM48.245 20.0237C48.245 20.5871 48.161 21.0854 47.9931 21.5187C47.8252 21.9467 47.6031 22.2933 47.3269 22.5587C47.056 22.8187 46.7229 23.0327 46.3275 23.2006C45.9321 23.3685 45.5285 23.485 45.1169 23.55C44.7106 23.615 44.2664 23.6475 43.7844 23.6475H41.1031V28.36H39.1531V16.5787H43.6462C44.5129 16.5787 45.2496 16.66 45.8562 16.8225C46.4629 16.985 46.9369 17.2233 47.2781 17.5375C47.6194 17.8462 47.8658 18.2037 48.0175 18.61C48.1692 19.0108 48.245 19.4821 48.245 20.0237ZM46.295 20.0725C46.295 19.4333 46.0539 18.9892 45.5719 18.74C45.0952 18.4908 44.3883 18.3662 43.4512 18.3662H41.1031V21.86H43.4837C44.0146 21.86 44.4669 21.8167 44.8406 21.73C45.2144 21.6433 45.5042 21.5187 45.71 21.3562C45.9158 21.1937 46.0648 21.0096 46.1569 20.8037C46.2489 20.5925 46.295 20.3487 46.295 20.0725ZM19.3314 38.2431V39.36H15.3896V38.2431H16.7692V30.9506H15.3896V29.8337H19.3314V30.9506H17.9518V38.2431H19.3314ZM24.6727 38.3154C25.4348 38.3154 26.0721 38.1161 26.5845 37.7175C27.1014 37.319 27.3882 36.824 27.4452 36.2327H28.6803C28.5621 36.6926 28.4 37.1065 28.1941 37.4744C27.9927 37.838 27.7649 38.1424 27.5109 38.3877C27.2612 38.6285 26.9787 38.8278 26.6634 38.9855C26.3524 39.1432 26.0349 39.2571 25.7107 39.3271C25.3866 39.3972 25.0472 39.4323 24.6924 39.4323C24.0223 39.4323 23.4091 39.3228 22.8529 39.1038C22.301 38.8848 21.8258 38.5694 21.4272 38.1577C21.0287 37.7416 20.7177 37.2226 20.4943 36.6007C20.2753 35.9743 20.1658 35.2714 20.1658 34.4917C20.1658 33.5413 20.3585 32.7026 20.744 31.9755C21.1338 31.2484 21.6725 30.6878 22.3601 30.2936C23.0478 29.8994 23.8318 29.7023 24.7121 29.7023C25.2596 29.7023 25.7567 29.7812 26.2035 29.9389C26.6502 30.0922 27.0225 30.3046 27.3204 30.5761C27.6226 30.8477 27.87 31.1411 28.0627 31.4565C28.2555 31.7718 28.4066 32.1157 28.5161 32.4879H27.2809C27.1846 32.177 27.0379 31.9076 26.8408 31.6799C26.648 31.4521 26.4269 31.2791 26.1772 31.1608C25.9319 31.0426 25.6867 30.9572 25.4414 30.9046C25.1961 30.8477 24.9443 30.8192 24.6859 30.8192C24.007 30.8192 23.4113 30.9835 22.8989 31.312C22.3864 31.6361 21.9988 32.0741 21.736 32.6259C21.4776 33.1778 21.3484 33.7975 21.3484 34.4852C21.3484 34.7961 21.379 35.1137 21.4404 35.4378C21.5061 35.7619 21.6199 36.0992 21.782 36.4496C21.944 36.7999 22.1455 37.1109 22.3864 37.3825C22.6317 37.654 22.9514 37.8774 23.3456 38.0526C23.7398 38.2278 24.1822 38.3154 24.6727 38.3154ZM36.8532 38.841C36.1655 39.2352 35.3728 39.4323 34.4749 39.4323C33.577 39.4323 32.7821 39.2352 32.09 38.841C31.4024 38.4424 30.8659 37.8752 30.4804 37.1394C30.095 36.4036 29.9023 35.5517 29.9023 34.5837C29.9023 33.6245 30.0862 32.777 30.4542 32.0412C30.8221 31.3054 31.352 30.7316 32.0441 30.3199C32.7405 29.9082 33.5507 29.7023 34.4749 29.7023C35.399 29.7023 36.2071 29.9082 36.8992 30.3199C37.5956 30.7316 38.1277 31.3054 38.4956 32.0412C38.8635 32.777 39.0475 33.6245 39.0475 34.5837C39.0475 35.5517 38.8548 36.4036 38.4693 37.1394C38.0839 37.8752 37.5452 38.4424 36.8532 38.841ZM36.9517 31.8638C36.3473 31.1674 35.5217 30.8192 34.4749 30.8192C33.4281 30.8192 32.6003 31.1674 31.9915 31.8638C31.3871 32.5602 31.0849 33.4669 31.0849 34.5837C31.0849 35.7181 31.3871 36.6247 31.9915 37.3036C32.5959 37.9781 33.4237 38.3154 34.4749 38.3154C35.5261 38.3154 36.3539 37.9781 36.9583 37.3036C37.5627 36.6247 37.8649 35.7181 37.8649 34.5837C37.8649 33.4669 37.5605 32.5602 36.9517 31.8638ZM40.7162 39.36V29.8337H41.8988L47.1218 37.2905V29.8337H48.3044V39.36H47.1218L41.8988 31.8967V39.36H40.7162Z" fill="#4E4E4E"/>
</svg>
